<svg width="312" height="91" viewBox="0 0 312 91" fill="none" xmlns="http://www.w3.org/2000/svg">
<path fill-rule="evenodd" clip-rule="evenodd" d="M61.4749 1.81126C64.6816 0.529343 68.1155 -0.0838582 71.5667 0.00920849C75.0179 0.102302 78.4139 0.899741 81.5472 2.35262C84.6797 3.8051 87.4837 5.88212 89.7888 8.45654C96.4403 15.8664 97.5139 26.1725 94.1272 34.8848C90.0187 45.4541 82.1597 55.1299 73.8917 64.088C70.9677 67.2563 68.012 70.3171 65.1245 73.3072C59.6981 78.9264 54.5123 84.2968 50.2283 89.6637C49.7568 90.2541 49.0571 90.6171 48.3027 90.6619C47.5485 90.7069 46.8104 90.4296 46.2723 89.8992C45.2736 88.9147 44.2381 87.8989 43.1739 86.8547C36.5467 80.3531 28.7888 72.7421 21.6675 64.6499C13.4216 55.2795 5.8392 45.0584 1.80427 34.9032C0.527177 31.6891 -0.0835433 28.248 0.00917666 24.7896C0.101897 21.3312 0.89611 17.9277 2.34363 14.7869C3.79091 11.6467 5.86099 8.83468 8.42811 6.52225C18.7731 -2.82004 34.7115 -1.22346 44.2824 8.37681L48.1443 12.2504L52.9157 7.46425C55.356 5.01678 58.268 3.09316 61.4749 1.81126ZM71.4229 5.34062C68.6981 5.26713 65.9869 5.75121 63.4547 6.76356C60.9221 7.7759 58.6213 9.29548 56.6928 11.2299L50.0328 17.9101C49.5323 18.412 48.8528 18.6939 48.1443 18.6939C47.4355 18.6939 46.756 18.412 46.2557 17.9101L40.5056 12.1421C32.664 4.27692 19.9565 3.29638 12.0016 10.4813L11.9987 10.484C9.96944 12.3115 8.33222 14.5352 7.18731 17.0195C6.0424 19.5035 5.41395 22.196 5.34059 24.9325C5.26723 27.6688 5.75051 30.3915 6.7607 32.9339C10.4521 42.2245 17.5456 51.8928 25.6712 61.1264C32.6523 69.0592 40.2552 76.5189 46.8893 83.0283C47.2403 83.3725 47.5883 83.7142 47.9336 84.0531C51.9957 79.2262 56.7517 74.2984 61.5419 69.3355C64.3861 66.3883 67.2424 63.4288 69.9725 60.4709C78.1795 51.5787 85.4355 42.524 89.1563 32.9525C91.9189 25.8448 90.9456 17.7288 85.8195 12.0187L85.8168 12.0157C83.9944 9.98001 81.7784 8.33868 79.3037 7.1911C76.8291 6.04366 74.1475 5.41412 71.4229 5.34062Z" fill="#394867"/>
<path fill-rule="evenodd" clip-rule="evenodd" d="M55.7573 20.0957L34.5832 47.4709C33.9053 48.3472 34.5301 49.62 35.6379 49.62H47.7088L43.636 70.2872L64.8101 42.912C65.488 42.0357 64.8632 40.7629 63.7555 40.7629H51.6845L55.7573 20.0957Z" fill="#394867"/>
<path d="M176.938 60.8561C176.938 64.0195 177.074 66.4145 177.345 68.0414C177.616 69.6682 178.159 71.0691 178.972 72.2441C179.785 73.419 181.051 74.7747 182.768 76.3112L181.683 77.938H157.823L157.009 75.4978C159.088 74.9555 160.58 74.4132 161.483 73.8709C162.478 73.2383 163.11 72.4248 163.381 71.4306C163.743 70.3461 163.924 68.7644 163.924 66.6857V47.7058H139.928V60.8561C139.928 64.0195 140.063 66.4597 140.334 68.177C140.605 69.8038 141.103 71.2047 141.826 72.3796C142.639 73.4642 143.904 74.7747 145.622 76.3112L144.673 77.938H120.812L119.999 75.4978C122.981 74.6843 124.879 73.7805 125.693 72.7864C126.506 71.7018 126.913 69.6682 126.913 66.6857V31.4373C126.913 27.099 126.551 24.0713 125.828 22.3541C125.196 20.5465 123.569 18.5581 120.948 16.389L122.032 14.6265H145.079L146.028 16.7957C143.407 18.3321 141.735 19.7782 141.012 21.1339C140.289 22.3993 139.928 24.704 139.928 28.048V43.9098H163.924V31.4373C163.924 27.099 163.562 24.0713 162.839 22.3541C162.206 20.5465 160.58 18.5581 157.958 16.389L159.043 14.6265H182.09L183.175 16.7957C180.554 18.3321 178.836 19.7782 178.023 21.1339C177.3 22.3993 176.938 24.704 176.938 28.048V60.8561Z" fill="#394867"/>
<path d="M216.833 74.6843C219.454 74.6843 221.759 74.2324 223.747 73.3286C225.736 72.3345 227.679 70.7076 229.577 68.4481L231.204 69.6682C229.125 72.6508 226.459 75.0007 223.205 76.7179C220.042 78.3448 216.562 79.1582 212.766 79.1582C208.609 79.1582 204.858 78.164 201.514 76.1756C198.26 74.1873 195.684 71.4758 193.786 68.0414C191.888 64.5165 190.939 60.5398 190.939 56.1112C190.939 49.0615 193.063 43.4579 197.311 39.3004C201.649 35.0525 207.388 32.9286 214.529 32.9286C219.59 32.9286 223.702 34.1487 226.866 36.589C230.119 38.9389 231.746 42.0118 231.746 45.8078C231.746 50.1461 229.893 53.6257 226.188 56.2467C222.572 58.7774 217.601 60.0427 211.275 60.0427C208.744 60.0427 206.44 59.862 204.361 59.5004C204.813 64.2002 206.168 67.9058 208.428 70.6172C210.687 73.3286 213.489 74.6843 216.833 74.6843ZM213.037 36.1823C210.235 36.1823 208.021 37.8995 206.394 41.334C204.858 44.678 204.09 49.3778 204.09 55.4333V57.6024C205.084 57.6024 206.304 57.5121 207.75 57.3313C211.546 56.8794 214.438 55.6593 216.427 53.6709C218.505 51.5921 219.545 48.8807 219.545 45.5367C219.545 42.8252 218.912 40.6109 217.647 38.8937C216.472 37.0861 214.935 36.1823 213.037 36.1823Z" fill="#394867"/>
<path d="M253.265 47.9769C251.367 49.0615 249.107 49.6038 246.486 49.6038C244.588 49.6038 243.097 49.0615 242.012 47.9769C240.928 46.802 240.386 45.1751 240.386 43.0964C240.386 40.0234 241.877 37.5832 244.859 35.7756C247.932 33.8776 251.909 32.9286 256.79 32.9286C262.574 32.9286 267.093 34.1939 270.347 36.7246C273.691 39.2552 275.363 42.6897 275.363 47.0279V70.4817C275.363 73.0123 276.267 74.2776 278.074 74.2776C279.791 74.2776 281.463 73.5998 283.09 72.2441L284.175 73.5998C280.831 77.3054 276.854 79.1582 272.245 79.1582C269.533 79.1582 267.454 78.4803 266.008 77.1246C264.653 75.7689 263.839 73.645 263.568 70.7528H263.026C261.58 73.3738 259.637 75.4526 257.196 76.989C254.846 78.4351 252.135 79.1582 249.062 79.1582C245.628 79.1582 242.871 78.1188 240.792 76.0401C238.713 73.8709 237.674 71.0691 237.674 67.6347C237.674 63.7483 239.527 60.6754 243.233 58.4159C246.938 56.1564 251.954 55.0266 258.281 55.0266C259.456 55.0266 261.128 55.117 263.297 55.2977V48.5192C263.297 44.0906 262.755 40.9273 261.67 39.0293C260.586 37.0409 258.823 36.0467 256.383 36.0467C254.666 36.0467 253.31 36.589 252.316 37.6736C251.322 38.7581 250.824 40.159 250.824 41.8763C250.824 44.5877 251.638 46.6212 253.265 47.9769ZM255.298 72.3796C260.631 72.3796 263.297 67.5443 263.297 57.8736C258.778 57.8736 255.389 58.6418 253.129 60.1783C250.87 61.6244 249.74 63.7031 249.74 66.4145C249.74 68.2221 250.237 69.6682 251.231 70.7528C252.225 71.8374 253.581 72.3796 255.298 72.3796Z" fill="#394867"/>
<path d="M303.322 70.2105C303.322 72.9219 304.181 74.2776 305.898 74.2776C307.615 74.2776 309.287 73.5998 310.914 72.2441L311.999 73.5998C308.835 77.3054 304.904 79.1582 300.204 79.1582C297.041 79.1582 294.736 78.4351 293.29 76.989C291.844 75.4526 291.121 73.0575 291.121 69.8038V20.0494C291.121 18.784 290.533 18.1514 289.358 18.1514H285.02L284.613 16.7957C286.331 15.1688 288.545 13.9035 291.256 12.9997C294.058 12.0055 296.815 11.5084 299.526 11.5084C300.701 11.5084 301.605 11.7796 302.238 12.3218C302.961 12.7737 303.322 13.4516 303.322 14.3554V70.2105Z" fill="#394867"/>
</svg>
