<svg width="225" height="43" viewBox="0 0 225 43" fill="none" xmlns="http://www.w3.org/2000/svg">
<g clip-path="url(#clip0_1130_1461)">
<path d="M5.11156 2.25086H4.97354V0.244198L4.12416 1.9642H4.0286L3.17922 0.244198V2.25086H3.04119V0H3.20045L4.07107 1.74123L4.94169 0H5.10095V2.25086H5.11156ZM2.63774 0.127407H1.87329V2.25086H1.73527V0.127407H0.960205V0H2.63774V0.127407Z" fill="#FB3B2C"/>
<path d="M80.7916 5.64844L67.4669 39.2628H62.8696L49.5449 5.64844H55.6392L65.1417 29.8452L74.6973 5.64844H80.7916Z" fill="#FB3B2C"/>
<path d="M110.244 22.4556C110.244 15.841 105.901 10.9783 99.2444 10.9783C92.5874 10.9783 88.0856 15.841 88.0856 22.4556C88.0856 29.0702 92.5767 33.9329 99.2444 33.9329C105.912 33.9329 110.244 29.0702 110.244 22.4556ZM82.3523 22.4556C82.3523 12.4754 89.2748 5.23438 99.2444 5.23438C109.214 5.23438 116.03 12.4754 116.03 22.4556C116.03 32.4359 109.214 39.6768 99.2444 39.6768C89.2748 39.6768 82.3523 32.4359 82.3523 22.4556Z" fill="#FB3B2C"/>
<path d="M126.924 5.64844H121.19V39.2628H126.924V5.64844Z" fill="#FB3B2C"/>
<path d="M158.277 10.9252H147.946V39.2628H142.159V10.9252H131.829V5.64844H158.277V10.9252Z" fill="#FB3B2C"/>
<path d="M190.309 5.64844V39.2628H184.576V25.2479H168.968V39.2628H163.235V5.64844H168.968V19.6633H184.576V5.64844H190.309Z" fill="#FB3B2C"/>
<path d="M212.106 24.7808V39.2628H206.373V24.94L194.386 5.64844H201L209.218 18.8351L217.425 5.64844H224.04L212.106 24.7808Z" fill="#FB3B2C"/>
<path d="M11.2484 21.1921V3.04712C5.80175 4.86267 2.12817 9.96959 2.12817 15.7242V33.8691C7.57484 32.0535 11.2484 26.9466 11.2484 21.1921Z" fill="#FB3B2C"/>
<path d="M20.2519 33.8691H2.12817C3.94373 39.3264 9.05064 43 14.7946 43H32.9077C31.0921 37.5427 25.9852 33.8691 20.2413 33.8691" fill="#FB3B2C"/>
<path d="M42.0385 12.178C36.5918 13.9935 32.9182 19.1004 32.9182 24.855V43C38.3649 41.1844 42.0385 36.0775 42.0385 30.3229V12.178Z" fill="#FB3B2C"/>
<path d="M23.9147 12.178H42.0384C40.2229 6.7207 35.1159 3.04712 29.372 3.04712H11.2483C13.0638 8.5044 18.1708 12.178 23.9147 12.178Z" fill="#FB3B2C"/>
</g>
<defs>
<clipPath id="clip0_1130_1461">
<rect width="225" height="43" fill="white"/>
</clipPath>
</defs>
</svg>
