<svg width="2896" height="793" viewBox="0 0 2896 793" fill="none" xmlns="http://www.w3.org/2000/svg">
<path d="M300.395 0H388.734V58.3886C416.833 56.6774 444.068 58.3135 468.54 63.4796C364.732 104.338 316.972 209.338 309.152 226.533L308.67 227.587C283.303 223.735 255.821 220.533 229.816 220.771C203.018 223.055 177.018 227.015 134.198 251.133C128.16 255.4 120.019 262.399 108.957 273.07C108.153 272.492 107.292 271.955 106.165 271.25C105.264 270.687 104.189 270.018 102.837 269.135C96.7219 265.14 87.793 259.733 76.9052 254.333C54.4762 243.205 26.9632 233.715 0 233.715V148.063C46.6222 148.063 88.5395 163.892 117.144 178.083C127.066 183.006 135.775 187.927 142.981 192.299C149.357 178.691 157.769 166.034 167.826 154.364L119.315 78.2404L197.075 27.7425L241.83 97.975C260.262 88.4697 280.033 80.5823 300.395 74.3835V0Z" fill="black"/>
<path d="M537.948 191.939C505.755 206.862 477.889 231.392 452.765 278.609C452.765 278.609 397.025 253.119 351.804 239.87C386.51 169.508 426.897 129.918 486.453 102.312C544.064 75.6081 612.792 68.7704 694.437 71.5918L690.572 176.681C615.239 174.077 572.085 176.116 537.948 191.939Z" fill="black"/>
<path d="M152 291.951C-8.39468 435.016 220.739 792.68 404.05 792.68C587.359 792.68 839.771 435.334 656.1 271.513C651.862 267.732 648.152 264.331 644.706 261.173C629.525 247.253 619.421 237.991 591.409 221.334C535.042 221.334 501.073 277.719 485.609 312.07C484.823 313.815 483.854 315.442 482.732 316.935L447.082 416.109L434.236 462.227C432.88 467.097 433.233 472.282 435.241 476.922L450.245 511.6L527.939 502.583L533.032 546.456L459.96 554.939L464.708 624.546L420.642 627.552L414.717 540.719L394.704 494.462C388.681 480.544 387.617 464.981 391.685 450.374L392.069 448.996L347.149 469.31L317.778 543.554L276.705 527.307L299.966 468.508L229.063 451.803L239.191 408.81L327.652 429.652L408.405 393.13L435.561 317.589C365.596 284.718 221.919 229.585 152 291.951Z" fill="black"/>
<path d="M1545.4 551.569C1545.4 583.202 1546.75 607.153 1549.46 623.421C1552.18 639.69 1557.6 653.699 1565.73 665.448C1573.87 677.198 1586.52 690.755 1603.69 706.119L1592.85 722.388H1354.24L1346.11 697.985C1366.9 692.562 1381.81 687.14 1390.85 681.717C1400.79 675.39 1407.12 667.256 1409.83 657.314C1413.44 646.468 1415.25 630.652 1415.25 609.864V420.065H1175.29V551.569C1175.29 583.202 1176.64 607.605 1179.36 624.777C1182.07 641.045 1187.04 655.054 1194.27 666.804C1202.4 677.65 1215.06 690.755 1232.23 706.119L1222.74 722.388H984.134L976 697.985C1005.83 689.851 1024.81 680.813 1032.94 670.871C1041.07 660.025 1045.14 639.69 1045.14 609.864V257.38C1045.14 213.997 1041.53 183.72 1034.3 166.548C1027.97 148.472 1011.7 128.588 985.49 106.897L996.336 89.2724H1226.81L1236.3 110.964C1210.09 126.328 1193.37 140.789 1186.13 154.346C1178.9 167 1175.29 190.047 1175.29 223.487V382.105H1415.25V257.38C1415.25 213.997 1411.63 183.72 1404.4 166.548C1398.08 148.472 1381.81 128.588 1355.6 106.897L1366.44 89.2724H1596.91L1607.76 110.964C1581.55 126.328 1564.38 140.789 1556.24 154.346C1549.01 167 1545.4 190.047 1545.4 223.487V551.569Z" fill="black"/>
<path d="M1944.35 689.851C1970.56 689.851 1993.6 685.332 2013.49 676.294C2033.37 666.352 2052.8 650.084 2071.78 627.488L2088.05 639.69C2067.26 669.515 2040.6 693.014 2008.06 710.187C1976.43 726.455 1941.63 734.589 1903.67 734.589C1862.1 734.589 1824.59 724.648 1791.15 704.764C1758.61 684.88 1732.86 657.766 1713.88 623.421C1694.9 588.173 1685.41 548.405 1685.41 504.119C1685.41 433.622 1706.65 377.586 1749.12 336.011C1792.51 293.532 1849.9 272.293 1921.3 272.293C1971.91 272.293 2013.04 284.494 2044.67 308.897C2077.21 332.396 2093.47 363.125 2093.47 401.085C2093.47 444.468 2074.95 479.264 2037.89 505.475C2001.74 530.781 1952.03 543.435 1888.76 543.435C1863.46 543.435 1840.41 541.627 1819.62 538.012C1824.14 585.01 1837.7 622.066 1860.29 649.18C1882.89 676.294 1910.91 689.851 1944.35 689.851ZM1906.39 304.83C1878.37 304.83 1856.23 322.002 1839.96 356.347C1824.59 389.788 1816.91 436.786 1816.91 497.34V519.032C1826.85 519.032 1839.05 518.128 1853.51 516.32C1891.47 511.801 1920.4 499.6 1940.28 479.716C1961.07 458.929 1971.46 431.815 1971.46 398.374C1971.46 371.26 1965.13 349.116 1952.48 331.944C1940.73 313.868 1925.37 304.83 1906.39 304.83Z" fill="black"/>
<path d="M2308.66 422.776C2289.68 433.622 2267.09 439.045 2240.88 439.045C2221.9 439.045 2206.98 433.622 2196.14 422.776C2185.29 411.027 2179.87 394.759 2179.87 373.971C2179.87 343.242 2194.78 318.839 2224.61 300.763C2255.34 281.783 2295.1 272.293 2343.91 272.293C2401.75 272.293 2446.94 284.946 2479.48 310.253C2512.92 335.559 2529.64 369.904 2529.64 413.287V647.824C2529.64 673.131 2538.68 685.784 2556.76 685.784C2573.93 685.784 2590.65 679.005 2606.92 665.448L2617.76 679.005C2584.32 716.061 2544.55 734.589 2498.46 734.589C2471.35 734.589 2450.56 727.811 2436.1 714.254C2422.54 700.697 2414.41 679.457 2411.69 650.535H2406.27C2391.81 676.746 2372.38 697.533 2347.98 712.898C2324.48 727.359 2297.36 734.589 2266.63 734.589C2232.29 734.589 2204.72 724.196 2183.94 703.408C2163.15 681.717 2152.75 653.699 2152.75 619.354C2152.75 580.491 2171.28 549.761 2208.34 527.166C2245.39 504.571 2295.56 493.273 2358.82 493.273C2370.57 493.273 2387.29 494.177 2408.98 495.985V428.199C2408.98 383.913 2403.56 352.28 2392.71 333.3C2381.87 313.416 2364.24 303.474 2339.84 303.474C2322.67 303.474 2309.11 308.897 2299.17 319.743C2289.23 330.588 2284.26 344.597 2284.26 361.77C2284.26 388.884 2292.39 409.219 2308.66 422.776ZM2329 666.804C2382.32 666.804 2408.98 618.45 2408.98 521.743C2363.79 521.743 2329.9 529.426 2307.31 544.79C2284.71 559.251 2273.41 580.039 2273.41 607.153C2273.41 625.229 2278.38 639.69 2288.33 650.535C2298.27 661.381 2311.82 666.804 2329 666.804Z" fill="black"/>
<path d="M2809.23 645.113C2809.23 672.227 2817.82 685.784 2834.99 685.784C2852.17 685.784 2868.89 679.005 2885.15 665.448L2896 679.005C2864.37 716.061 2825.05 734.589 2778.05 734.589C2746.42 734.589 2723.37 727.359 2708.91 712.898C2694.45 697.533 2687.22 673.582 2687.22 641.045V143.501C2687.22 130.847 2681.35 124.521 2669.6 124.521H2626.21L2622.15 110.964C2639.32 94.6952 2661.46 82.0419 2688.58 73.0038C2716.59 63.062 2744.16 58.0911 2771.27 58.0911C2783.02 58.0911 2792.06 60.8025 2798.39 66.2253C2805.62 70.7443 2809.23 77.5229 2809.23 86.5609V645.113Z" fill="black"/>
</svg>
